<?xml version="1.0" encoding="UTF-8" standalone="no"?>
<!DOCTYPE svg PUBLIC "-//W3C//DTD SVG 1.1//EN"
 "http://www.w3.org/Graphics/SVG/1.1/DTD/svg11.dtd">
<!-- Generated by graphviz version 2.30.1 (20130618.2027)
 -->
<!-- Title: G Pages: 1 -->
<svg width="689pt" height="428pt"
 viewBox="0.00 0.00 689.00 428.00" xmlns="http://www.w3.org/2000/svg" xmlns:xlink="http://www.w3.org/1999/xlink">
<g id="graph0" class="graph" transform="scale(1 1) rotate(0) translate(4 424)">
<title>G</title>
<polygon fill="white" stroke="white" points="-4,5 -4,-424 686,-424 686,5 -4,5"/>
<text text-anchor="middle" x="340.5" y="-7.8" font-family="Times,serif" font-size="14.00">Graph</text>
<!-- aipsetup -->
<g id="node1" class="node"><title>aipsetup</title>
<ellipse fill="none" stroke="black" cx="311.575" cy="-152.575" rx="40.0939" ry="18"/>
<text text-anchor="middle" x="311.575" y="-148.875" font-family="Times,serif" font-size="14.00">aipsetup</text>
</g>
<!-- db -->
<g id="node2" class="node"><title>db</title>
<ellipse fill="none" stroke="black" cx="303.979" cy="-268.906" rx="27" ry="18"/>
<text text-anchor="middle" x="303.979" y="-265.206" font-family="Times,serif" font-size="14.00">db</text>
</g>
<!-- aipsetup&#45;&gt;db -->
<g id="edge1" class="edge"><title>aipsetup&#45;&gt;db</title>
<path fill="none" stroke="black" d="M310.388,-170.752C309.162,-189.533 307.231,-219.096 305.809,-240.873"/>
<polygon fill="black" stroke="black" points="302.317,-240.65 305.158,-250.857 309.302,-241.106 302.317,-240.65"/>
</g>
<!-- pkg_server -->
<g id="node13" class="node"><title>pkg_server</title>
<ellipse fill="none" stroke="black" cx="309.659" cy="-106.319" rx="50.0912" ry="18"/>
<text text-anchor="middle" x="309.659" y="-102.619" font-family="Times,serif" font-size="14.00">pkg_server</text>
</g>
<!-- aipsetup&#45;&gt;pkg_server -->
<g id="edge8" class="edge"><title>aipsetup&#45;&gt;pkg_server</title>
<path fill="none" stroke="black" d="M310.829,-134.559C310.824,-134.454 310.82,-134.35 310.816,-134.245"/>
<polygon fill="black" stroke="black" points="314.317,-134.209 310.407,-124.362 307.323,-134.499 314.317,-134.209"/>
</g>
<!-- client -->
<g id="node14" class="node"><title>client</title>
<ellipse fill="none" stroke="black" cx="350.627" cy="-41.2085" rx="31.3957" ry="18"/>
<text text-anchor="middle" x="350.627" y="-37.5085" font-family="Times,serif" font-size="14.00">client</text>
</g>
<!-- aipsetup&#45;&gt;client -->
<g id="edge9" class="edge"><title>aipsetup&#45;&gt;client</title>
<path fill="none" stroke="black" d="M317.849,-134.682C324.112,-116.823 333.818,-89.1423 341.045,-68.5326"/>
<polygon fill="black" stroke="black" points="344.362,-69.652 344.368,-59.0571 337.756,-67.3356 344.362,-69.652"/>
</g>
<!-- src_server -->
<g id="node15" class="node"><title>src_server</title>
<ellipse fill="none" stroke="black" cx="192.675" cy="-180.721" rx="48.1917" ry="18"/>
<text text-anchor="middle" x="192.675" y="-177.021" font-family="Times,serif" font-size="14.00">src_server</text>
</g>
<!-- aipsetup&#45;&gt;src_server -->
<g id="edge11" class="edge"><title>aipsetup&#45;&gt;src_server</title>
<path fill="none" stroke="black" d="M275.901,-161.02C265.636,-163.45 254.239,-166.148 243.255,-168.748"/>
<polygon fill="black" stroke="black" points="242.254,-165.388 233.329,-171.097 243.866,-172.2 242.254,-165.388"/>
</g>
<!-- db_info -->
<g id="node3" class="node"><title>db_info</title>
<ellipse fill="none" stroke="black" cx="402.158" cy="-229.863" rx="38.1938" ry="18"/>
<text text-anchor="middle" x="402.158" y="-226.163" font-family="Times,serif" font-size="14.00">db_info</text>
</g>
<!-- db&#45;&gt;db_info -->
<g id="edge2" class="edge"><title>db&#45;&gt;db_info</title>
<path fill="none" stroke="black" d="M327.246,-259.653C337.985,-255.383 351.028,-250.196 363.202,-245.355"/>
<polygon fill="black" stroke="black" points="364.719,-248.518 372.718,-241.57 362.132,-242.013 364.719,-248.518"/>
</g>
<!-- db_pkg_index -->
<g id="node4" class="node"><title>db_pkg_index</title>
<ellipse fill="none" stroke="black" cx="267.23" cy="-315.627" rx="61.1893" ry="18"/>
<text text-anchor="middle" x="267.23" y="-311.927" font-family="Times,serif" font-size="14.00">db_pkg_index</text>
</g>
<!-- db&#45;&gt;db_pkg_index -->
<g id="edge3" class="edge"><title>db&#45;&gt;db_pkg_index</title>
<path fill="none" stroke="black" d="M291.332,-284.985C290.086,-286.568 288.802,-288.202 287.504,-289.852"/>
<polygon fill="black" stroke="black" points="284.463,-288.057 281.032,-298.08 289.965,-292.384 284.463,-288.057"/>
</g>
<!-- db_src_index -->
<g id="node5" class="node"><title>db_src_index</title>
<ellipse fill="none" stroke="black" cx="306.181" cy="-402.263" rx="59.2899" ry="18"/>
<text text-anchor="middle" x="306.181" y="-398.563" font-family="Times,serif" font-size="14.00">db_src_index</text>
</g>
<!-- db&#45;&gt;db_src_index -->
<g id="edge4" class="edge"><title>db&#45;&gt;db_src_index</title>
<path fill="none" stroke="black" d="M304.281,-287.169C304.651,-309.614 305.284,-347.94 305.717,-374.15"/>
<polygon fill="black" stroke="black" points="302.218,-374.28 305.883,-384.221 309.217,-374.164 302.218,-374.28"/>
</g>
<!-- server_tarballs -->
<g id="node6" class="node"><title>server_tarballs</title>
<ellipse fill="none" stroke="black" cx="64.406" cy="-240.314" rx="64.189" ry="18"/>
<text text-anchor="middle" x="64.406" y="-236.614" font-family="Times,serif" font-size="14.00">server_tarballs</text>
</g>
<!-- client_design -->
<g id="node7" class="node"><title>client_design</title>
<ellipse fill="none" stroke="black" cx="228.702" cy="-224.721" rx="58.4896" ry="18"/>
<text text-anchor="middle" x="228.702" y="-221.021" font-family="Times,serif" font-size="14.00">client_design</text>
</g>
<!-- server_tarballs&#45;&gt;client_design -->
<g id="edge5" class="edge"><title>server_tarballs&#45;&gt;client_design</title>
<path fill="none" stroke="black" d="M125.584,-234.508C137.63,-233.365 150.32,-232.16 162.522,-231.002"/>
<polygon fill="black" stroke="black" points="163.007,-234.472 172.631,-230.043 162.345,-227.503 163.007,-234.472"/>
</g>
<!-- server_packages -->
<g id="node8" class="node"><title>server_packages</title>
<ellipse fill="none" stroke="black" cx="408.659" cy="-287.1" rx="69.5877" ry="18"/>
<text text-anchor="middle" x="408.659" y="-283.4" font-family="Times,serif" font-size="14.00">server_packages</text>
</g>
<!-- client_design&#45;&gt;server_packages -->
<g id="edge7" class="edge"><title>client_design&#45;&gt;server_packages</title>
<path fill="none" stroke="black" d="M267.75,-238.256C293.919,-247.328 328.658,-259.369 357.095,-269.226"/>
<polygon fill="black" stroke="black" points="356.272,-272.645 366.866,-272.614 358.564,-266.031 356.272,-272.645"/>
</g>
<!-- client_use_install -->
<g id="node9" class="node"><title>client_use_install</title>
<ellipse fill="none" stroke="black" cx="586.517" cy="-330.549" rx="74.187" ry="18"/>
<text text-anchor="middle" x="586.517" y="-326.849" font-family="Times,serif" font-size="14.00">client_use_install</text>
</g>
<!-- server_packages&#45;&gt;client_use_install -->
<g id="edge6" class="edge"><title>server_packages&#45;&gt;client_use_install</title>
<path fill="none" stroke="black" d="M459.626,-299.551C479.742,-304.465 503.048,-310.158 524.155,-315.315"/>
<polygon fill="black" stroke="black" points="523.452,-318.746 533.997,-317.719 525.113,-311.946 523.452,-318.746"/>
</g>
<!-- client_design_build -->
<g id="node10" class="node"><title>client_design_build</title>
<ellipse fill="none" stroke="black" cx="516.238" cy="-69.6409" rx="81.4863" ry="18"/>
<text text-anchor="middle" x="516.238" y="-65.9409" font-family="Times,serif" font-size="14.00">client_design_build</text>
</g>
<!-- client_design_pack -->
<g id="node11" class="node"><title>client_design_pack</title>
<ellipse fill="none" stroke="black" cx="601.238" cy="-243.641" rx="79.0865" ry="18"/>
<text text-anchor="middle" x="601.238" y="-239.941" font-family="Times,serif" font-size="14.00">client_design_pack</text>
</g>
<!-- client_use_uninstall -->
<g id="node12" class="node"><title>client_use_uninstall</title>
<ellipse fill="none" stroke="black" cx="489.238" cy="-156.641" rx="83.3857" ry="18"/>
<text text-anchor="middle" x="489.238" y="-152.941" font-family="Times,serif" font-size="14.00">client_use_uninstall</text>
</g>
<!-- src_server&#45;&gt;client_design -->
<g id="edge10" class="edge"><title>src_server&#45;&gt;client_design</title>
<path fill="none" stroke="black" d="M206.914,-198.111C207.219,-198.483 207.525,-198.857 207.833,-199.233"/>
<polygon fill="black" stroke="black" points="205.288,-201.649 214.331,-207.169 210.704,-197.214 205.288,-201.649"/>
</g>
</g>
</svg>
